<svg width="17" height="10" viewBox="0 0 17 10" fill="none" xmlns="http://www.w3.org/2000/svg">
<path d="M8.24634 0.758789C8.55396 0.767578 8.83521 0.881836 9.06372 1.12793L15.7434 7.96582C15.9368 8.15918 16.0422 8.40527 16.0422 8.69531C16.0422 9.27539 15.5852 9.74121 15.0051 9.74121C14.7239 9.74121 14.4514 9.62695 14.2493 9.4248L8.25513 3.26367L2.24341 9.4248C2.04126 9.61816 1.77759 9.74121 1.48755 9.74121C0.907471 9.74121 0.450439 9.27539 0.450439 8.69531C0.450439 8.40527 0.555908 8.15918 0.749268 7.96582L7.43774 1.12793C7.67505 0.881836 7.93872 0.758789 8.24634 0.758789Z" fill="#1C1C1E"/>
</svg>
